<?xml version="1.0" encoding="utf-8"?>
<!-- Generator: Adobe Illustrator 25.3.0, SVG Export Plug-In . SVG Version: 6.00 Build 0)  -->
<svg version="1.1" id="Filled" xmlns="http://www.w3.org/2000/svg" xmlns:xlink="http://www.w3.org/1999/xlink" x="0px" y="0px"
	 viewBox="0 0 512 512" style="enable-background:new 0 0 512 512;" xml:space="preserve">
<style type="text/css">
	.st0{fill:#DDDDDD;}
</style>
<path class="st0" d="M485.8,164.7c-20.2-23.3-49.6-36.7-80.5-36.7h-85.1l7.2-43.5c5.8-35.3-18-68.7-53.3-74.5
	c-28.2-4.7-56.1,9.7-68.7,35.3l-34.7,70.3V448h219.7c53.1-0.2,98-39.2,105.6-91.7l15-106.7C515.4,219,506.2,188,485.8,164.7z"/>
<path class="st0" d="M0,234.7v106.7C0.1,400.2,47.8,447.9,106.7,448H128V128h-21.3C47.8,128.1,0.1,175.8,0,234.7z"/>
</svg>
