<?xml version="1.0" encoding="utf-8"?>
<!-- Generator: Adobe Illustrator 25.3.0, SVG Export Plug-In . SVG Version: 6.00 Build 0)  -->
<svg version="1.1" id="Layer_1" xmlns="http://www.w3.org/2000/svg" xmlns:xlink="http://www.w3.org/1999/xlink" x="0px" y="0px"
	 viewBox="0 0 24 24" style="enable-background:new 0 0 24 24;" xml:space="preserve">
<style type="text/css">
	.st0{fill:#FFFFFF;}
</style>
<path class="st0" d="M8,12c3.3,0,6-2.7,6-6s-2.7-6-6-6S2,2.7,2,6S4.7,12,8,12z M8,2c2.2,0,4,1.8,4,4s-1.8,4-4,4S4,8.2,4,6S5.8,2,8,2
	z M9,14.9c0.1,0.5-0.3,1-0.9,1.1C4.6,16.5,2,19.5,2,23c0,0.6-0.4,1-1,1s-1-0.4-1-1c0-4.5,3.4-8.4,7.9-8.9C8.4,14,8.9,14.4,9,14.9
	L9,14.9z M22.7,19.1l-1-0.6c0.2-0.5,0.3-1,0.3-1.6s-0.1-1.1-0.3-1.6l1-0.6c0.5-0.3,0.6-0.9,0.4-1.4c-0.3-0.5-0.9-0.6-1.4-0.4l-1,0.6
	c-0.7-0.8-1.6-1.4-2.7-1.6V11c0-0.6-0.4-1-1-1s-1,0.4-1,1v1.1c-1.1,0.2-2,0.8-2.7,1.6l-1-0.6c-0.5-0.3-1.1-0.1-1.4,0.4
	s-0.1,1.1,0.4,1.4l1,0.6c-0.2,0.5-0.3,1-0.3,1.6s0.1,1.1,0.3,1.6l-1,0.6c-0.5,0.3-0.6,0.9-0.4,1.4c0.2,0.3,0.5,0.5,0.9,0.5
	c0.2,0,0.3,0,0.5-0.1l1-0.6c0.7,0.8,1.6,1.4,2.7,1.6V23c0,0.6,0.4,1,1,1s1-0.4,1-1v-1.1c1.1-0.2,2-0.8,2.7-1.6l1,0.6
	C21.9,21,22,21,22.2,21c0.3,0,0.7-0.2,0.9-0.5C23.3,20,23.2,19.4,22.7,19.1z M17,20c-1.7,0-3-1.3-3-3s1.3-3,3-3s3,1.3,3,3
	S18.7,20,17,20z"/>
</svg>
