<?xml version="1.0" encoding="utf-8"?>
<!-- Generator: Adobe Illustrator 25.3.0, SVG Export Plug-In . SVG Version: 6.00 Build 0)  -->
<svg version="1.1" id="Outline" xmlns="http://www.w3.org/2000/svg" xmlns:xlink="http://www.w3.org/1999/xlink" x="0px" y="0px"
	 viewBox="0 0 512 512" style="enable-background:new 0 0 512 512;" xml:space="preserve">
<style type="text/css">
	.st0{fill:#FFFFFF;}
</style>
<path class="st0" d="M21.3,128h469.3c11.8,0,21.3-9.6,21.3-21.3s-9.6-21.3-21.3-21.3H21.3C9.6,85.3,0,94.9,0,106.7S9.6,128,21.3,128
	z"/>
<path class="st0" d="M490.7,192H192c-11.8,0-21.3,9.6-21.3,21.3s9.6,21.3,21.3,21.3h298.7c11.8,0,21.3-9.6,21.3-21.3
	S502.4,192,490.7,192z"/>
<path class="st0" d="M490.7,405.3H192c-11.8,0-21.3,9.6-21.3,21.3c0,11.8,9.6,21.3,21.3,21.3h298.7c11.8,0,21.3-9.6,21.3-21.3
	C512,414.9,502.4,405.3,490.7,405.3z"/>
<path class="st0" d="M490.7,298.7H21.3C9.6,298.7,0,308.2,0,320c0,11.8,9.6,21.3,21.3,21.3h469.3c11.8,0,21.3-9.6,21.3-21.3
	C512,308.2,502.4,298.7,490.7,298.7z"/>
</svg>
