<?xml version="1.0" encoding="utf-8"?>
<!-- Generator: Adobe Illustrator 25.3.0, SVG Export Plug-In . SVG Version: 6.00 Build 0)  -->
<svg version="1.1" id="Layer_1" xmlns="http://www.w3.org/2000/svg" xmlns:xlink="http://www.w3.org/1999/xlink" x="0px" y="0px"
	 viewBox="0 0 512 512" style="enable-background:new 0 0 512 512;" xml:space="preserve">
<style type="text/css">
	.st0{fill:#FFFFFF;}
</style>
<path class="st0" d="M497,192.7c-12.2-14-29.8-22.1-48.4-22.1h-1.8C436.2,74.8,354.7,0,256,0S75.8,74.8,65.2,170.7H64
	c-18.6,0-36.2,8-48.3,22.1c-12.2,14-17.6,32.6-15,51l22.6,158.4C32.2,464.8,86.7,512,150,512h212.7c63.3,0,117.8-47.3,126.7-109.9
	L512,243.7C514.6,225.3,509.2,206.8,497,192.7L497,192.7z M256,42.7c75.1,0,137.4,55.7,147.8,128H108.2
	C118.6,98.4,180.9,42.7,256,42.7z M469.8,237.7l-22.6,158.4c-6,41.8-42.3,73.3-84.5,73.3H150c-42.2,0-78.5-31.5-84.5-73.3
	L42.9,237.7c-0.9-6.2,0.9-12.2,5-17c4.1-4.8,9.8-7.4,16.1-7.4h384.7c6.3,0,12,2.6,16.1,7.4C468.9,225.5,470.7,231.5,469.8,237.7
	L469.8,237.7z M277.3,277.3v128c0,11.8-9.5,21.3-21.3,21.3c-11.8,0-21.3-9.5-21.3-21.3v-128c0-11.8,9.5-21.3,21.3-21.3
	C267.8,256,277.3,265.5,277.3,277.3z M384,277.3v128c0,11.8-9.5,21.3-21.3,21.3c-11.8,0-21.3-9.5-21.3-21.3v-128
	c0-11.8,9.5-21.3,21.3-21.3C374.5,256,384,265.5,384,277.3z M170.7,277.3v128c0,11.8-9.5,21.3-21.3,21.3s-21.3-9.5-21.3-21.3v-128
	c0-11.8,9.5-21.3,21.3-21.3S170.7,265.5,170.7,277.3z"/>
</svg>
